<?xml version="1.0" standalone="no"?>
<!DOCTYPE svg PUBLIC "-//W3C//DTD SVG 20010904//EN"
 "http://www.w3.org/TR/2001/REC-SVG-20010904/DTD/svg10.dtd">
<svg version="1.0" xmlns="http://www.w3.org/2000/svg"
 width="260.000000pt" height="260.000000pt" viewBox="0 0 260.000000 260.000000"
 preserveAspectRatio="xMidYMid meet">
<metadata>
Created by potrace 1.11, written by Peter Selinger 2001-2013
</metadata>
<g transform="translate(0.000000,260.000000) scale(0.100000,-0.100000)"
fill="#000000" stroke="none">
<path d="M443 2182 c-13 -2 -23 -9 -24 -15 0 -16 0 -1671 0 -1717 l1 -35 875
1 c481 0 878 3 881 7 3 3 6 102 6 219 l1 213 -662 3 -661 2 0 220 0 220 660 0
660 0 1 43 c3 199 0 829 -4 833 -6 6 -1694 12 -1734 6z"/>
</g>
</svg>
